<?xml version="1.0" encoding="UTF-8"?>
<svg width="140px" height="160px" viewBox="0 0 140 160" version="1.1" xmlns="http://www.w3.org/2000/svg" xmlns:xlink="http://www.w3.org/1999/xlink">
    <!-- Generator: Sketch 55.2 (78181) - https://sketchapp.com -->
    <title>Glyph</title>
    <desc>Created with Sketch.</desc>
    <g id="Hive-for-iOS" stroke="none" stroke-width="1" fill="none" fill-rule="evenodd">
        <g id="Home" transform="translate(-118.000000, -161.000000)" stroke="#EE5253">
            <g id="Glyph" transform="translate(92.000000, 149.000000)">
                <polygon id="Polygon" stroke-width="12" transform="translate(96.000000, 92.000000) rotate(-240.000000) translate(-96.000000, -92.000000) " points="95.7506384 18.5676441 159.220243 55.4997755 159.469605 128.932131 96.2493616 165.432356 32.7797567 128.500224 32.5303951 55.0678685"></polygon>
                <path d="M75.7328364,93.2700876 L76.3755198,93.2675626 L76.3848741,90.8866033 L75.7893372,90.8889431 L74.5705145,92.1077657 L75.7328364,93.2700876 Z M115.615126,93.1133967 L116.210663,93.1110569 L117.429485,91.8922343 L116.267164,90.7299124 L115.62448,90.7324374 L115.615126,93.1133967 Z M70.3989544,87.2909973 L121.638838,87.0896842 L121.601046,96.7090027 L70.3611617,96.9103158 L70.3989544,87.2909973 Z" id="Rectangle" stroke-width="6" fill="#EE5253" transform="translate(96.000000, 92.000000) rotate(-315.000000) translate(-96.000000, -92.000000) "></path>
                <path d="M75.7328364,93.2700876 L76.3755198,93.2675626 L76.3848741,90.8866033 L75.7893372,90.8889431 L74.5705145,92.1077657 L75.7328364,93.2700876 Z M115.615126,93.1133967 L116.210663,93.1110569 L117.429485,91.8922343 L116.267164,90.7299124 L115.62448,90.7324374 L115.615126,93.1133967 Z M70.3989544,87.2909973 L121.638838,87.0896842 L121.601046,96.7090027 L70.3611617,96.9103158 L70.3989544,87.2909973 Z" id="Rectangle" stroke-width="6" fill="#EE5253" transform="translate(96.000000, 92.000000) scale(-1, 1) rotate(-315.000000) translate(-96.000000, -92.000000) "></path>
            </g>
        </g>
    </g>
</svg>